<svg width="250" height="139" viewBox="0 0 250 139" fill="none" xmlns="http://www.w3.org/2000/svg">
<g id="Bg">
<path d="M50.8 49H1V98.5H50.8V49Z" fill="url(#paint0_linear_42_1260)" fill-opacity="0.32"/>
<path fill-rule="evenodd" clip-rule="evenodd" d="M1 -50H50.8V-0.499996H100.6V49H150.4V98.5H100.6H50.8V49H1V-0.499996V-50ZM150.4 -0.499996V49H200.2V98.5H250V49H200.2V-0.499996H150.4ZM150.4 -0.499996V-50H100.6V-0.499996H150.4Z" fill="url(#paint1_linear_42_1260)" fill-opacity="0.32"/>
<path d="M100.6 -50H50.8M100.6 -50H150.4M100.6 -50V-0.499998M200.2 -50H250V-0.499998M200.2 -50H150.4M200.2 -50V-0.499998M50.8 -50H1V-0.499998M50.8 -50V-0.499998M150.4 -50V-0.499998M1 -0.499998H50.8M1 -0.499998V49M100.6 -0.499998H50.8M100.6 -0.499998H150.4M100.6 -0.499998V49M200.2 -0.499998H250M200.2 -0.499998H150.4M200.2 -0.499998V49M50.8 -0.499998V49M250 -0.499998V49M150.4 -0.499998V49M1 49H50.8M1 49V98.5M100.6 49H50.8M100.6 49H150.4M100.6 49V98.5M200.2 49H250M200.2 49H150.4M200.2 49V98.5M50.8 49V98.5M250 49V98.5M150.4 49V98.5M1 98.5H50.8M1 98.5V148H50.8M100.6 98.5H50.8M100.6 98.5H150.4M100.6 98.5V148M200.2 98.5H250M200.2 98.5H150.4M200.2 98.5V148M50.8 98.5V148M250 98.5V148H200.2M150.4 98.5V148M100.6 148H50.8M100.6 148H150.4M200.2 148H150.4" stroke="url(#paint2_linear_42_1260)" stroke-opacity="0.32"/>
</g>
<defs>
<linearGradient id="paint0_linear_42_1260" x1="125.5" y1="-50" x2="125.5" y2="148" gradientUnits="userSpaceOnUse">
<stop stop-color="#DDAF05" stop-opacity="0.24"/>
<stop offset="1" stop-color="#F7F7F7" stop-opacity="0"/>
</linearGradient>
<linearGradient id="paint1_linear_42_1260" x1="125.5" y1="-50" x2="125.5" y2="148" gradientUnits="userSpaceOnUse">
<stop stop-color="#DDAF05" stop-opacity="0.24"/>
<stop offset="1" stop-color="#F7F7F7" stop-opacity="0"/>
</linearGradient>
<linearGradient id="paint2_linear_42_1260" x1="125.5" y1="-50" x2="125.5" y2="148" gradientUnits="userSpaceOnUse">
<stop stop-color="#848C93" stop-opacity="0.72"/>
<stop offset="1" stop-color="#BFCDD9" stop-opacity="0"/>
</linearGradient>
</defs>
</svg>
