<svg width="18" height="18" viewBox="0 0 18 18" fill="none" xmlns="http://www.w3.org/2000/svg">
<path opacity="0.16" d="M8.6088 17.3327H7.72713C4.39963 17.3327 2.73546 17.3327 1.70129 16.356C0.667961 15.3802 0.667969 13.8085 0.667969 10.666V7.33268C0.667969 4.19018 0.667961 2.61851 1.70129 1.64268C2.73546 0.666013 4.39963 0.666016 7.72713 0.666016H12.3346C12.468 0.666016 12.5988 0.673518 12.728 0.689351C10.6338 0.908518 9.0013 2.68018 9.0013 4.83268C9.0013 7.13352 10.8671 8.99935 13.168 8.99935C14.1063 8.99935 14.9713 8.68935 15.668 8.16602V11.0143C15.6663 13.926 15.6288 15.4169 14.6346 16.356C13.6005 17.3327 11.9363 17.3327 8.6088 17.3327Z" fill="white"/>
<path fill-rule="evenodd" clip-rule="evenodd" d="M3.37322 17.8332C4.72822 17.9123 6.6582 17.959 8.5007 17.959L8.50318 17.9573C10.1782 17.9573 11.7807 17.9181 12.8132 17.8306C13.6424 17.7806 15.8207 17.1307 16.0991 14.7332C16.3254 12.785 16.3099 11.3628 16.3041 10.8253L16.304 10.8231C16.3032 10.7631 16.3032 10.714 16.3032 10.6781C16.3032 10.3331 16.0232 10.0531 15.6782 10.0531C15.3332 10.0531 15.0532 10.3331 15.0532 10.6781C15.0532 10.6956 15.0535 10.7157 15.0539 10.7382L15.0539 10.7383C15.0543 10.7673 15.0549 10.8003 15.0549 10.8373L15.055 10.8535C15.0602 11.3798 15.0734 12.7367 14.8574 14.5898C14.6399 16.4573 12.7524 16.584 12.7332 16.5848C12.7274 16.5857 12.7207 16.5865 12.7149 16.5865C10.6007 16.7682 5.99736 16.7348 3.44736 16.5857C1.66569 16.4823 1.30152 14.3523 1.30152 13.7873V13.779C1.28736 12.7207 1.29152 10.599 1.29652 8.35232C1.29902 7.16565 1.30152 5.93981 1.30152 4.80398C1.30152 2.18064 2.59572 1.53732 3.68238 1.45982C3.69322 1.45899 3.70321 1.45815 3.71404 1.45648C3.73321 1.45398 5.63405 1.22482 7.64072 1.30898C7.98738 1.32315 8.27739 1.05566 8.29155 0.710655C8.30572 0.365655 8.03821 0.0739839 7.69321 0.0598173C5.65904 -0.0251827 3.78236 0.189825 3.57736 0.213992C2.50319 0.294825 0.0507091 0.908145 0.0507091 4.80398C0.0507091 5.93898 0.0482042 7.16398 0.0457042 8.34981C0.0407042 10.5981 0.0365424 12.7223 0.0507091 13.7915C0.0515424 14.384 0.224033 15.3106 0.707366 16.1381C1.31653 17.1806 2.23822 17.7673 3.37322 17.8332ZM13.1667 9.62435C10.5242 9.62435 8.375 7.47518 8.375 4.83268C8.375 2.19018 10.5242 0.0410156 13.1667 0.0410156C15.8092 0.0410156 17.9583 2.19018 17.9583 4.83268C17.9583 7.47518 15.8092 9.62435 13.1667 9.62435ZM13.1667 1.29102C11.2142 1.29102 9.625 2.88018 9.625 4.83268C9.625 6.78518 11.2142 8.37435 13.1667 8.37435C15.1192 8.37435 16.7083 6.78518 16.7083 4.83268C16.7083 2.88018 15.1192 1.29102 13.1667 1.29102ZM12.3333 6.70827C12.3228 6.70827 12.3122 6.70824 12.3016 6.70743C12.0766 6.69576 11.8758 6.56411 11.775 6.36327C11.5942 6.00161 11.4458 5.89326 11.4033 5.86826C11.1042 5.82159 10.875 5.56327 10.875 5.25077C10.875 4.90577 11.155 4.62577 11.5 4.62577C11.625 4.62577 11.9566 4.66327 12.3258 5.00911C12.865 4.29994 13.7425 3.30743 14.625 2.99493C14.9508 2.87993 15.3075 3.04993 15.4225 3.37577C15.5375 3.70077 15.3675 4.05827 15.0417 4.17327C14.335 4.42327 13.3291 5.6841 12.8608 6.4191C12.7458 6.59993 12.5467 6.70827 12.3333 6.70827ZM8.16724 10.4581H4.8339C4.4889 10.4581 4.2089 10.1781 4.2089 9.83313C4.2089 9.48813 4.4889 9.20813 4.8339 9.20813H8.16724C8.51224 9.20813 8.79224 9.48813 8.79224 9.83313C8.79224 10.1781 8.51224 10.4581 8.16724 10.4581ZM4.83398 13.791H11.5007C11.8457 13.791 12.1257 13.511 12.1257 13.166C12.1257 12.821 11.8457 12.541 11.5007 12.541H4.83398C4.48898 12.541 4.20898 12.821 4.20898 13.166C4.20898 13.511 4.48898 13.791 4.83398 13.791Z" fill="white"/>
</svg>
