<svg width="44" height="44" viewBox="0 0 44 44" fill="none" xmlns="http://www.w3.org/2000/svg">
<rect width="44" height="44" rx="6" fill="#6914C5" fill-opacity="0.12"/>
<rect x="0.5" y="0.5" width="43" height="43" rx="5.5" stroke="#6914C5" stroke-opacity="0.32"/>
<path fill-rule="evenodd" clip-rule="evenodd" d="M12.9998 14.0003C12.9998 10.5025 15.8354 7.66699 19.3332 7.66699C22.831 7.66699 25.6665 10.5025 25.6665 14.0003C25.6665 17.4981 22.831 20.3337 19.3332 20.3337C15.8354 20.3337 12.9998 17.4981 12.9998 14.0003ZM36.1869 23.6431C36.7526 24.1145 36.829 24.9552 36.3576 25.5209L29.691 33.5209C29.4511 33.8087 29.1013 33.9823 28.7271 33.9993C28.3529 34.0163 27.9888 33.8751 27.7239 33.6102L24.3905 30.2768C23.8698 29.7561 23.8698 28.9119 24.3905 28.3912C24.9112 27.8705 25.7554 27.8705 26.2761 28.3912L28.5771 30.6921L34.309 23.8138C34.7805 23.2481 35.6212 23.1716 36.1869 23.6431ZM28.4425 27.7293L29.1932 26.8284C27.3311 24.1143 24.2067 22.334 20.6665 22.334H17.9998C12.2929 22.334 7.6665 26.9604 7.6665 32.6673C7.6665 33.2196 8.11422 33.6673 8.6665 33.6673H24.9524L22.9761 31.691C21.6744 30.3893 21.6744 28.2787 22.9761 26.977C24.2779 25.6752 26.3884 25.6752 27.6902 26.977L28.4425 27.7293Z" fill="#6914C5"/>
</svg>
